<?xml version="1.0" encoding="UTF-8"?>
<!DOCTYPE svg PUBLIC "-//W3C//DTD SVG 1.1//EN" "http://www.w3.org/Graphics/SVG/1.1/DTD/svg11.dtd">
<!-- Creator: CorelDRAW 2017 -->
<svg xmlns="http://www.w3.org/2000/svg" xml:space="preserve" width="50.3626mm" height="45.8622mm" version="1.1" style="shape-rendering:geometricPrecision; text-rendering:geometricPrecision; image-rendering:optimizeQuality; fill-rule:evenodd; clip-rule:evenodd"
viewBox="0 0 5036.26 4586.22"
 xmlns:xlink="http://www.w3.org/1999/xlink">
 <defs>
  <style type="text/css">
   <![CDATA[
    .fil4 {fill:#EEAC13}
    .fil2 {fill:#E03C42}
    .fil5 {fill:#BB60A1}
    .fil1 {fill:#8FB446}
    .fil3 {fill:#089C7A}
    .fil0 {fill:#3FB6D4}
    .fil6 {fill:#FF8921}
    .fil8 {fill:white}
    .fil7 {fill:#FF8921;fill-rule:nonzero}
   ]]>
  </style>
 </defs>
 <g id="Layer_x0020_1">
  <metadata id="CorelCorpID_0Corel-Layer"/>
  <g id="_863701472">
   <path class="fil0" d="M0.03 2286.9c3.42,-462.48 381.12,-834.62 843.61,-831.19 26.34,0.19 52.41,1.61 78.13,4.17 19.25,1.94 34.32,15.94 37.66,34.99 3.34,19.08 -6.09,37.37 -23.56,45.72 -173.12,82.78 -313.47,223.31 -395.94,396.83 -25.11,-5.72 -51.2,-8.83 -78,-9.03 -99.92,-0.74 -190.71,39.11 -256.69,104.12 -65.98,65.01 -107.16,155.19 -107.9,255.11 -0.74,99.92 39.11,190.72 104.11,256.69 65,65.97 155.2,107.16 255.12,107.9 26.8,0.2 52.95,-2.52 78.13,-7.87 79.9,174.73 218.14,317.34 390.01,402.66 17.34,8.61 26.5,27.04 22.88,46.06 -3.63,19.01 -18.9,32.78 -38.18,34.43 -25.75,2.19 -51.84,3.21 -78.18,3.01 -462.49,-3.42 -834.63,-381.11 -831.2,-843.6zm183.31 1.36c1.13,-152.38 125.58,-275 277.95,-273.87 152.38,1.13 275,125.58 273.87,277.96 -1.13,152.38 -125.57,275 -277.95,273.87 -152.38,-1.13 -275,-125.58 -273.87,-277.96z"/>
   <path class="fil1" d="M1253.7 4470.75c-398.8,-234.21 -532.24,-747.38 -298.03,-1146.19 13.35,-22.72 27.6,-44.59 42.68,-65.57 11.3,-15.71 30.96,-21.76 49.13,-15.12 18.2,6.64 29.32,23.95 27.82,43.26 -14.87,191.31 36.66,383.12 145.7,541.3 -17.52,18.89 -33.25,39.93 -46.82,63.04 -50.6,86.17 -61.49,184.72 -38.18,274.36 23.31,89.64 80.82,170.4 166.98,221 86.17,50.6 184.72,61.49 274.36,38.19 89.63,-23.31 170.4,-80.83 221,-166.99 13.57,-23.11 24.29,-47.13 32.25,-71.61 191.27,18.17 383.89,-30.24 543.72,-136.42 16.12,-10.71 36.67,-9.43 51.33,3.22 14.65,12.64 18.93,32.75 10.72,50.27 -10.97,23.4 -23.13,46.5 -36.48,69.22 -234.21,398.81 -747.36,532.25 -1146.18,298.04zm92.83 -158.08c-131.4,-77.16 -175.36,-246.25 -98.2,-377.65 77.17,-131.4 246.26,-175.36 377.66,-98.2 131.4,77.17 175.36,246.26 98.2,377.66 -77.17,131.4 -246.26,175.36 -377.66,98.19z"/>
   <path class="fil2" d="M3771.8 4476.95c-402.23,228.28 -913.36,87.25 -1141.64,-314.99 -13,-22.91 -24.81,-46.19 -35.44,-69.75 -7.96,-17.64 -3.36,-37.69 11.46,-50.1 14.86,-12.44 35.41,-13.41 51.38,-2.46 158.25,108.53 350.13,159.81 541.63,144.47 7.6,24.61 17.96,48.76 31.19,72.07 49.32,86.9 129.22,145.61 218.51,170.24 89.29,24.64 187.98,15.21 274.88,-34.11 86.91,-49.32 145.61,-129.23 170.25,-218.51 24.63,-89.28 15.2,-187.98 -34.12,-274.89 -13.22,-23.3 -28.66,-44.59 -45.88,-63.73 111.36,-156.56 165.75,-347.58 153.71,-539.08 -1.22,-19.32 10.17,-36.47 28.45,-42.85 18.28,-6.36 37.84,-0.02 48.9,15.85 14.78,21.21 28.7,43.29 41.7,66.2 228.28,402.24 87.27,913.37 -314.98,1141.64zm-90.47 -159.43c-132.53,75.22 -300.95,28.75 -376.16,-103.78 -75.21,-132.53 -28.75,-300.94 103.78,-376.15 132.53,-75.22 300.95,-28.75 376.16,103.78 75.21,132.53 28.74,300.94 -103.78,376.15z"/>
   <path class="fil3" d="M5036.23 2299.32c-3.42,462.48 -381.12,834.62 -843.61,831.19 -26.34,-0.19 -52.41,-1.61 -78.13,-4.17 -19.25,-1.94 -34.32,-15.94 -37.66,-34.99 -3.34,-19.08 6.09,-37.37 23.56,-45.72 173.12,-82.78 313.47,-223.31 395.94,-396.83 25.11,5.72 51.2,8.83 78,9.03 99.92,0.74 190.71,-39.11 256.69,-104.12 65.98,-65.01 107.16,-155.19 107.9,-255.11 0.74,-99.92 -39.11,-190.72 -104.11,-256.69 -65,-65.97 -155.2,-107.16 -255.12,-107.9 -26.8,-0.2 -52.95,2.52 -78.13,7.87 -79.9,-174.73 -218.14,-317.34 -390.01,-402.66 -17.34,-8.61 -26.5,-27.04 -22.88,-46.06 3.63,-19.01 18.9,-32.78 38.18,-34.43 25.75,-2.19 51.84,-3.21 78.18,-3.01 462.49,3.42 834.63,381.11 831.2,843.6zm-183.31 -1.36c-1.13,152.38 -125.58,275 -277.95,273.87 -152.38,-1.13 -275,-125.58 -273.87,-277.96 1.13,-152.38 125.57,-275 277.95,-273.87 152.38,1.13 275,125.58 273.87,277.96z"/>
   <path class="fil4" d="M3782.56 115.47c398.8,234.21 532.24,747.38 298.03,1146.19 -13.35,22.72 -27.6,44.59 -42.68,65.57 -11.3,15.71 -30.96,21.76 -49.13,15.12 -18.2,-6.64 -29.32,-23.95 -27.82,-43.26 14.87,-191.31 -36.66,-383.12 -145.7,-541.3 17.52,-18.89 33.25,-39.93 46.82,-63.04 50.6,-86.17 61.49,-184.72 38.18,-274.36 -23.31,-89.64 -80.82,-170.4 -166.98,-221 -86.17,-50.6 -184.72,-61.49 -274.36,-38.19 -89.63,23.31 -170.4,80.83 -221,166.99 -13.57,23.11 -24.29,47.13 -32.25,71.61 -191.27,-18.17 -383.89,30.24 -543.72,136.42 -16.12,10.71 -36.67,9.43 -51.33,-3.22 -14.65,-12.64 -18.93,-32.75 -10.72,-50.27 10.97,-23.4 23.13,-46.5 36.48,-69.22 234.21,-398.81 747.36,-532.25 1146.18,-298.04zm-92.83 158.08c131.4,77.16 175.36,246.25 98.2,377.65 -77.17,131.4 -246.26,175.36 -377.66,98.2 -131.4,-77.17 -175.36,-246.26 -98.2,-377.66 77.17,-131.4 246.26,-175.36 377.66,-98.19z"/>
   <path class="fil5" d="M1264.46 109.27c402.23,-228.28 913.36,-87.25 1141.64,314.99 13,22.91 24.81,46.19 35.44,69.75 7.96,17.64 3.36,37.69 -11.46,50.1 -14.86,12.44 -35.41,13.41 -51.38,2.46 -158.25,-108.53 -350.13,-159.81 -541.63,-144.47 -7.6,-24.61 -17.96,-48.76 -31.19,-72.07 -49.32,-86.9 -129.22,-145.61 -218.51,-170.24 -89.29,-24.64 -187.98,-15.21 -274.88,34.11 -86.91,49.32 -145.61,129.23 -170.25,218.51 -24.63,89.28 -15.2,187.98 34.12,274.89 13.22,23.3 28.66,44.59 45.88,63.73 -111.36,156.56 -165.75,347.58 -153.71,539.08 1.22,19.32 -10.17,36.47 -28.45,42.85 -18.28,6.36 -37.84,0.02 -48.9,-15.85 -14.78,-21.21 -28.7,-43.29 -41.7,-66.2 -228.28,-402.24 -87.27,-913.37 314.98,-1141.64zm90.47 159.43c132.53,-75.22 300.95,-28.75 376.16,103.78 75.21,132.53 28.75,300.94 -103.78,376.15 -132.53,75.22 -300.95,28.75 -376.16,-103.78 -75.21,-132.53 -28.74,-300.94 103.78,-376.15z"/>
   <g>
    <path class="fil6" d="M2624.65 1120.36l427.92 247.06 427.93 247.06c67.75,39.11 106.52,106.28 106.52,184.5l0 494.13 0 494.13c0,78.23 -38.77,145.39 -106.52,184.5l-427.93 247.06 -427.92 247.06c-67.75,39.12 -145.29,39.12 -213.04,0l-427.92 -247.06 -427.93 -247.06c-67.75,-39.11 -106.52,-106.28 -106.52,-184.5l0 -494.13 0 -494.13c0,-78.23 38.77,-145.39 106.52,-184.5l427.93 -247.06 427.92 -247.06c67.75,-39.12 145.29,-39.12 213.04,0z"/>
    <path class="fil7" d="M1483.33 1260c-10.36,-17.93 -4.21,-40.87 13.72,-51.23 17.94,-10.35 40.87,-4.2 51.23,13.73l114.71 198.69c10.36,17.94 4.21,40.87 -13.72,51.23 -17.94,10.35 -40.87,4.21 -51.23,-13.73l-114.71 -198.69zm296.26 -171.04c-10.36,-17.94 -4.21,-40.88 13.72,-51.23 17.94,-10.36 40.87,-4.21 51.23,13.73l114.71 198.69c10.36,17.93 4.21,40.87 -13.72,51.22 -17.94,10.36 -40.87,4.21 -51.23,-13.72l-114.71 -198.69zm296.28 -171.06c-10.35,-17.94 -4.21,-40.88 13.73,-51.23 17.93,-10.36 40.87,-4.21 51.22,13.73l114.72 198.69c10.35,17.93 4.21,40.87 -13.73,51.22 -17.93,10.36 -40.87,4.21 -51.22,-13.72l-114.72 -198.69z"/>
    <path class="fil8" d="M1947 2181.23c22.87,68.6 114.34,182.95 160.08,251.55 68.6,114.34 228.68,343.02 274.42,434.5 114.34,182.95 182.95,160.08 274.42,68.6 114.34,-114.34 365.89,-594.57 411.63,-777.52 22.87,-68.6 68.6,-205.81 45.74,-274.42 -68.6,-114.34 -137.21,-160.08 -228.68,-137.21 -91.47,0 -160.08,68.6 -205.81,137.21 -182.95,205.81 -22.87,137.21 -388.76,-91.47 -45.74,-22.87 -137.21,-45.74 -182.95,-22.87 -182.95,68.6 -228.68,228.68 -160.08,411.63l-0.01 0z"/>
    <path class="fil7" d="M1106.03 2672.72c-20.71,0 -37.5,-16.79 -37.5,-37.5 0,-20.71 16.79,-37.5 37.5,-37.5l229.43 0c20.71,0 37.5,16.79 37.5,37.5 0,20.71 -16.79,37.5 -37.5,37.5l-229.43 0zm0 -342.09c-20.71,0 -37.5,-16.79 -37.5,-37.5 0,-20.71 16.79,-37.5 37.5,-37.5l229.43 0c20.71,0 37.5,16.79 37.5,37.5 0,20.71 -16.79,37.5 -37.5,37.5l-229.43 0zm0 -342.12c-20.71,0 -37.5,-16.79 -37.5,-37.5 0,-20.71 16.79,-37.5 37.5,-37.5l229.43 0c20.71,0 37.5,16.79 37.5,37.5 0,20.71 -16.79,37.5 -37.5,37.5l-229.43 0z"/>
    <path class="fil7" d="M2140.83 3705.83c-10.35,17.93 -33.29,24.08 -51.22,13.73 -17.94,-10.36 -24.09,-33.3 -13.73,-51.23l114.71 -198.69c10.36,-17.94 33.3,-24.08 51.23,-13.73 17.94,10.36 24.08,33.29 13.73,51.23l-114.72 198.69zm-296.26 -171.05c-10.35,17.94 -33.29,24.09 -51.22,13.73 -17.94,-10.35 -24.08,-33.29 -13.73,-51.23l114.72 -198.69c10.35,-17.93 33.29,-24.08 51.22,-13.72 17.94,10.35 24.08,33.29 13.73,51.22l-114.72 198.69zm-296.28 -171.06c-10.36,17.94 -33.29,24.09 -51.23,13.73 -17.93,-10.35 -24.08,-33.29 -13.72,-51.23l114.71 -198.69c10.36,-17.93 33.29,-24.08 51.23,-13.72 17.93,10.35 24.08,33.29 13.72,51.22l-114.71 198.69z"/>
    <path class="fil7" d="M3552.93 3326.22c10.36,17.93 4.21,40.87 -13.72,51.23 -17.94,10.35 -40.87,4.2 -51.23,-13.73l-114.71 -198.69c-10.36,-17.94 -4.21,-40.87 13.72,-51.23 17.94,-10.35 40.87,-4.21 51.23,13.73l114.71 198.69zm-296.26 171.04c10.36,17.94 4.21,40.88 -13.72,51.23 -17.94,10.36 -40.87,4.21 -51.23,-13.73l-114.71 -198.69c-10.36,-17.93 -4.21,-40.87 13.72,-51.22 17.94,-10.36 40.87,-4.21 51.23,13.72l114.71 198.69zm-296.28 171.06c10.35,17.94 4.21,40.88 -13.73,51.23 -17.93,10.36 -40.87,4.21 -51.22,-13.73l-114.72 -198.69c-10.35,-17.93 -4.21,-40.87 13.73,-51.22 17.93,-10.36 40.87,-4.21 51.22,13.72l114.72 198.69z"/>
    <path class="fil7" d="M2895.43 880.39c10.35,-17.93 33.29,-24.08 51.22,-13.73 17.94,10.36 24.09,33.3 13.73,51.23l-114.71 198.69c-10.36,17.94 -33.3,24.08 -51.23,13.73 -17.94,-10.36 -24.08,-33.29 -13.73,-51.23l114.72 -198.69zm296.26 171.05c10.35,-17.94 33.29,-24.09 51.22,-13.73 17.94,10.35 24.08,33.29 13.73,51.23l-114.72 198.69c-10.35,17.93 -33.29,24.08 -51.22,13.72 -17.94,-10.35 -24.08,-33.29 -13.73,-51.22l114.72 -198.69zm296.28 171.06c10.36,-17.94 33.29,-24.09 51.23,-13.73 17.93,10.35 24.08,33.29 13.72,51.23l-114.71 198.69c-10.36,17.93 -33.29,24.08 -51.23,13.72 -17.93,-10.35 -24.08,-33.29 -13.72,-51.22l114.71 -198.69z"/>
    <path class="fil7" d="M3930.23 1913.5c20.71,0 37.5,16.79 37.5,37.5 0,20.71 -16.79,37.5 -37.5,37.5l-229.43 0c-20.71,0 -37.5,-16.79 -37.5,-37.5 0,-20.71 16.79,-37.5 37.5,-37.5l229.43 0zm0 342.09c20.71,0 37.5,16.79 37.5,37.5 0,20.71 -16.79,37.5 -37.5,37.5l-229.43 0c-20.71,0 -37.5,-16.79 -37.5,-37.5 0,-20.71 16.79,-37.5 37.5,-37.5l229.43 0zm0 342.12c20.71,0 37.5,16.79 37.5,37.5 0,20.71 -16.79,37.5 -37.5,37.5l-229.43 0c-20.71,0 -37.5,-16.79 -37.5,-37.5 0,-20.71 16.79,-37.5 37.5,-37.5l229.43 0z"/>
   </g>
  </g>
 </g>
</svg>
